<svg width="154" height="32" viewBox="0 0 154 32" fill="none" xmlns="http://www.w3.org/2000/svg">
<path d="M12.7988 28.7404L5.50538 7.87712L2.79877 16.2704L7.19202 19.6037L7.97543 23.0937L0 17.2873L5.73887 0L12.7988 20.9739L19.7819 0.30722L25.3487 17.7604L17.3887 23.5238L18.2519 19.7604L22.4854 16.5438L19.6621 8.23042L12.7988 28.7404Z" fill="#2F55D4"/>
<path d="M38.6484 5.16772V7.73917H33.395V10.3935H38.2706V12.9558H33.395V17.7545H30.375V5.16772H38.6484Z" fill="#2F55D4"/>
<path d="M52.5468 15.2691L51.576 12.9558L50.5008 10.3935L49.3886 7.73917L48.3103 5.16772H45.2258L44.1475 7.73917L43.0353 10.3935L41.96 12.9558L40.9892 15.2691L39.9478 17.7545H43.3579L44.2335 15.2691H49.1828L50.0584 17.7545H53.5883L52.5468 15.2691ZM45.0445 12.9558L45.9478 10.3935L46.7097 8.22764L47.4685 10.3935L48.3717 12.9558H45.0445Z" fill="#2F55D4"/>
<path d="M76.4981 15.2691V17.7545H68.6917V5.16772H71.6348V15.2691H76.4981Z" fill="#2F55D4"/>
<path d="M106.304 5.16772V11.6224L104.971 12.9558L103.373 14.5533L102.658 15.2691L101.871 16.0556L101.373 15.2691L99.9202 12.9558L98.3073 10.3935L97.7789 9.55176V17.7545H94.8511V5.16772H98.2489L99.868 7.73917L101.536 10.3935L103.146 12.9558L103.373 13.3152V5.16772H106.304Z" fill="#2F55D4"/>
<path d="M66.3443 16.1411C65.5916 16.8754 64.6607 17.4314 63.6223 17.754C62.9772 17.9537 62.289 18.0612 61.5762 18.0612C60.8635 18.0612 60.1753 17.9537 59.5302 17.754C58.1108 17.3147 56.8911 16.433 56.0494 15.2686C55.5486 14.5835 55.1799 13.8001 54.9772 12.9552C54.8573 12.4668 54.7959 11.9568 54.7959 11.4314C54.7959 11.0781 54.8235 10.731 54.8788 10.393C55.0355 9.42221 55.4073 8.52206 55.9449 7.73865C56.7621 6.55278 57.9572 5.64032 59.3643 5.1672C60.0555 4.93065 60.802 4.80469 61.5762 4.80469C62.3504 4.80469 63.097 4.93065 63.7882 5.1672C64.7406 5.48671 65.6008 6.01207 66.3074 6.68181L64.2644 8.76168C63.8589 8.30393 63.3551 7.94755 62.7898 7.73865C62.4242 7.60347 62.0279 7.52973 61.6193 7.52973C61.2107 7.52973 60.8174 7.60347 60.4518 7.73865C59.3243 8.15032 58.4457 9.14571 58.1169 10.393C58.0217 10.7433 57.9726 11.1119 57.9726 11.4959C57.9726 12.0121 58.0616 12.5036 58.2275 12.9552C58.6269 14.0489 59.4564 14.903 60.4918 15.2686C60.8451 15.3946 61.226 15.4622 61.6193 15.4622C62.0125 15.4622 62.3934 15.3946 62.7468 15.2686C63.3766 15.0474 63.9296 14.6419 64.3566 14.1135L66.3443 16.1411Z" fill="#2F55D4"/>
<path d="M91.8375 10.393C91.6808 9.42221 91.3091 8.52206 90.7715 7.73865C89.9542 6.55278 88.7561 5.64032 87.349 5.1672C86.6547 4.93065 85.9112 4.80469 85.137 4.80469C84.3628 4.80469 83.6194 4.93065 82.9251 5.1672C81.518 5.64032 80.3229 6.55278 79.5057 7.73865C78.9681 8.52206 78.5963 9.42221 78.4396 10.393C78.3843 10.731 78.3567 11.0781 78.3567 11.4314C78.3567 11.9568 78.4181 12.4668 78.5379 12.9552C78.7407 13.8001 79.1094 14.5835 79.6102 15.2686C80.4519 16.433 81.6716 17.3147 83.094 17.754C83.7392 17.9537 84.4243 18.0612 85.137 18.0612C85.8498 18.0612 86.5349 17.9537 87.1801 17.754C88.6025 17.3147 89.8221 16.433 90.667 15.2686C91.1678 14.5835 91.5364 13.8001 91.7392 12.9552C91.859 12.4668 91.9205 11.9568 91.9205 11.4314C91.9205 11.0781 91.8928 10.731 91.8375 10.393ZM88.5687 12.9552C88.1662 14.0489 87.3275 14.903 86.283 15.2686C85.9235 15.3946 85.5395 15.4622 85.1432 15.4622C84.7469 15.4622 84.3628 15.3946 84.0034 15.2686C82.9558 14.903 82.1171 14.0489 81.7146 12.9552C81.5487 12.5036 81.4565 12.0121 81.4565 11.4959C81.4565 11.1119 81.5057 10.7433 81.604 10.393C81.9358 9.14571 82.8237 8.15032 83.9635 7.73865C84.3352 7.60347 84.7315 7.52973 85.1432 7.52973C85.5579 7.52973 85.9542 7.60347 86.326 7.73865C87.4596 8.15339 88.3475 9.14571 88.6793 10.393C88.7776 10.7433 88.8268 11.1119 88.8268 11.4959C88.8268 12.0121 88.7346 12.5036 88.5687 12.9552Z" fill="#2F55D4"/>
<path d="M103.736 30.6268V31.5823H96.458V21.4993L97.7729 20.212V30.6268H103.736Z" fill="#2F55D4"/>
<path d="M121.53 30.6268L120.532 28.2735L120.065 27.1767L119.337 25.4624L118.909 24.4578L116.928 19.8035L116.501 18.7958H115.109L114.682 19.8035L112.701 24.4578L112.274 25.4624L111.545 27.1767L111.078 28.2735L110.077 30.6268L109.671 31.5823H110.999L111.389 30.6268L112.353 28.2735H119.131L120.095 30.6268L120.486 31.5823H121.936L121.53 30.6268ZM112.802 27.1767L113.505 25.4624L113.917 24.4578L115.742 20.0093L117.567 24.4578L117.979 25.4624L118.682 27.1767H112.802Z" fill="#2F55D4"/>
<path d="M137.742 27.1767C137.518 26.4916 137.06 25.8956 136.449 25.4624C136.093 25.2105 135.681 25.0108 135.235 24.8849C135.506 24.7774 135.758 24.633 135.985 24.4578C136.738 23.8772 137.223 22.974 137.223 21.9571C137.223 21.1245 136.901 20.3687 136.369 19.8035C135.785 19.1829 134.956 18.7958 134.034 18.7958H129.288V31.5823H134.089C135.116 31.5823 136.043 31.2198 136.725 30.6268C137.42 30.0308 137.865 29.1983 137.899 28.2735C137.902 28.2336 137.902 28.1936 137.902 28.1537C137.902 27.8158 137.847 27.487 137.742 27.1767ZM130.501 19.8035H133.669C134.953 19.8035 135.994 20.8449 135.994 22.1291C135.994 23.4164 134.953 24.4578 133.669 24.4578H130.501V19.8035ZM130.501 30.6268V25.4624H134.01C135.168 25.4624 136.151 26.1783 136.516 27.1767C136.618 27.4471 136.673 27.742 136.673 28.0462C136.673 28.123 136.67 28.1998 136.664 28.2735C136.544 29.5915 135.401 30.6268 134.01 30.6268H130.501Z" fill="#2F55D4"/>
<path d="M153.733 28.2735V28.2919C153.733 29.1767 153.368 29.9908 152.759 30.6268C152.381 31.0231 151.911 31.3488 151.377 31.5822C150.775 31.8495 150.093 32.0001 149.368 32.0001C148.643 32.0001 147.961 31.8495 147.358 31.5822C146.824 31.3488 146.354 31.0231 145.976 30.6268C145.819 30.464 145.678 30.2888 145.558 30.1045L146.437 29.4225C146.732 29.9325 147.217 30.3534 147.816 30.6268C148.299 30.848 148.852 30.9739 149.444 30.9739C150.037 30.9739 150.593 30.848 151.076 30.6268C152.083 30.1629 152.769 29.2842 152.784 28.2735V28.2397C152.784 27.8618 152.692 27.5054 152.52 27.1767C152.062 26.2888 151.045 25.6406 149.828 25.5269C149.739 25.5177 149.647 25.5116 149.555 25.5116C149.552 25.5085 149.546 25.5085 149.543 25.5116C149.414 25.4993 149.285 25.4839 149.159 25.4624C148.584 25.3672 148.053 25.1736 147.589 24.9063C147.362 24.7742 147.146 24.6237 146.953 24.4578C146.212 23.8219 145.758 22.9555 145.758 22C145.758 21.1675 146.102 20.4056 146.676 19.8034C147.085 19.3764 147.61 19.0292 148.212 18.7957C148.753 18.5868 149.355 18.4701 149.988 18.4701C150.621 18.4701 151.223 18.5868 151.764 18.7957C152.366 19.0292 152.888 19.3764 153.297 19.8034C153.377 19.8833 153.451 19.9693 153.521 20.0584L152.51 20.8449C152.219 20.3933 151.767 20.0277 151.226 19.8034C150.845 19.6467 150.418 19.5576 149.967 19.5576C149.515 19.5576 149.088 19.6467 148.707 19.8034C147.721 20.212 147.042 21.0815 147.042 22.0891C147.042 23.1736 147.828 24.0953 148.934 24.4578C149.11 24.5162 149.297 24.5592 149.487 24.5868C149.644 24.6084 149.804 24.6206 149.967 24.6206C149.97 24.6176 149.973 24.6206 149.976 24.6206C150.633 24.6974 151.245 24.9002 151.773 25.1982C151.918 25.2781 152.059 25.3672 152.191 25.4624C152.812 25.911 153.282 26.5008 153.53 27.1767C153.66 27.5208 153.73 27.8895 153.733 28.2735Z" fill="#2F55D4"/>
</svg>
