<svg xmlns="http://www.w3.org/2000/svg" viewBox="0 0 108 24" role="img" aria-label="Pixis.ai">
  <g transform="translate(0 1.25) scale(0.0635) translate(-66 -99)">
    <path d="M255.87 245.155C183.903 245.155 116.725 207.169 66.8698 138.156L117.711 99.1548C155.314 151.204 204.324 179.911 255.87 179.911C307.415 179.911 356.426 151.204 394.029 99.1548L444.87 138.156C395.014 207.169 327.836 245.155 255.87 245.155Z" fill="#072929"/>
    <path d="M394.029 412.155C356.426 360.105 307.415 331.398 255.87 331.398C204.324 331.398 155.314 360.105 117.711 412.155L66.8698 373.154C116.725 304.141 183.903 266.155 255.87 266.155C327.836 266.155 395.014 304.141 444.87 373.154L394.029 412.155Z" fill="#072929"/>
  </g>
  <text x="26" y="17.5" font-family="Inter, -apple-system, BlinkMacSystemFont, Segoe UI, Arial, sans-serif" font-size="15" font-weight="700" fill="#072929" letter-spacing="-0.03em">Pixis</text>
  <text x="62" y="17.5" font-family="Inter, -apple-system, BlinkMacSystemFont, Segoe UI, Arial, sans-serif" font-size="15" font-weight="500" fill="#3D5454" letter-spacing="-0.01em">.ai</text>
</svg>
