<svg xmlns="http://www.w3.org/2000/svg" viewBox="0 0 118 24" role="img" aria-label="Salesforce">
  <path fill="#00A1E0" d="M11.2 4.1a3.6 3.6 0 0 1 2.62-1.12c1.34 0 2.54.77 3.17 1.89.54-.26 1.16-.39 1.8-.39 2.45 0 4.43 2.01 4.43 4.48s-1.98 4.48-4.42 4.48c-.3 0-.6-.04-.88-.09a3.22 3.22 0 0 1-2.83 1.67c-.52 0-1-.13-1.42-.32a3.7 3.7 0 0 1-3.24 2.04 3.69 3.69 0 0 1-3.47-2.42c-.23.05-.46.07-.71.07-1.89 0-3.44-1.55-3.44-3.47 0-1.29.7-2.41 1.72-3.01-.22-.49-.34-1.03-.34-1.58 0-2.21 1.8-3.99 3.99-3.99 1.31 0 2.45.61 3.19 1.55"/>
  <text x="24" y="17" font-family="Arial, Helvetica, sans-serif" font-size="13" font-weight="700" fill="#032D60">salesforce</text>
</svg>
