<svg xmlns="http://www.w3.org/2000/svg" viewBox="0 0 108 24" role="img" aria-label="Salesforce">
  <path fill="#00A1E0" d="M12.4 4.4a3.9 3.9 0 0 1 2.85-1.22c1.46 0 2.77.84 3.46 2.06.59-.28 1.26-.43 1.96-.43 2.67 0 4.83 2.19 4.83 4.88s-2.16 4.88-4.82 4.88c-.33 0-.65-.04-.96-.1a3.5 3.5 0 0 1-3.08 1.82c-.57 0-1.09-.14-1.55-.35a4 4 0 0 1-3.53 2.22 4.02 4.02 0 0 1-3.78-2.64 4.5 4.5 0 0 1-.78.08c-2.06 0-3.75-1.69-3.75-3.78 0-1.41.76-2.63 1.87-3.28-.24-.53-.37-1.12-.37-1.72 0-2.41 1.96-4.35 4.35-4.35 1.43 0 2.67.67 3.48 1.69"/>
  <text x="26" y="17.5" font-family="Arial, Helvetica, sans-serif" font-size="14.5" font-weight="700" fill="#032D60">salesforce</text>
</svg>
