<svg xmlns="http://www.w3.org/2000/svg" viewBox="0 0 468 222.5" role="img" aria-label="Stripe">
  <path fill="#635BFF" d="M414 113.4c0-25.6-12.4-45.8-36.1-45.8-23.8 0-38.2 20.2-38.2 45.6 0 30.1 17 45.3 41.4 45.3 11.9 0 20.9-2.7 27.7-6.5V136c-6.8 3.4-14.6 5.5-24.5 5.5-9.7 0-18.3-3.4-19.4-15.2h48.9c0-1.3.2-6.5.2-13.2zm-49.4-9.5c0-11.3 6.9-16 13.2-16 6.1 0 12.6 4.7 12.6 16h-25.8zM301.1 67.6c-9.8 0-16.1 4.6-19.6 7.8l-1.3-6.2h-22v116.6l25-5.3.1-28.3c3.6 2.6 8.9 6.3 17.7 6.3 17.9 0 34.2-14.4 34.2-46.1-.1-29-15.6-45.1-34.1-45.1zm-6 68.9c-5.9 0-9.4-2.1-11.8-4.7l-.1-37.1c2.6-2.9 6.2-4.9 11.9-4.9 9.1 0 15.4 10.2 15.4 23.3 0 13.4-6.2 23.4-15.4 23.4zM223.8 61.2l25.1-5.4V36.4l-25.1 5.3v19.5zm.1 55.1l.1-48.5 25.1-5.3v48.5l-25.1 5.3zM196.9 76.7l-1.6-7.4h-21.6v87.8h25V87.5c6.7-8.7 18.1-7.1 21.7-5.9v-23c-3.8-1.4-17.6-4.2-23.5 18.1zM146.9 47.6l-24.4 5.2-.1 80.1c0 14.8 11.1 25.7 25.9 25.7 8.2 0 14.2-1.5 17.5-3.3V135c-3.2 1.3-19 5.9-19-8.9V90.6h19V68.3h-19V47.6zM79.3 94.7c0-3.9 3.2-5.4 8.5-5.4 7.6 0 17.2 2.3 24.8 6.4V71.9c-8.3-3.3-16.5-4.6-24.8-4.6C67.5 67.3 54 78.2 54 95.9c0 27.6 38 23.2 38 35.1 0 4.6-4 6.1-9.6 6.1-8.3 0-18.9-3.4-27.3-8v23.8c9.3 4 18.7 5.7 27.3 5.7 20.8 0 35.1-10.3 35.1-28.2-.1-29.8-38.2-24.5-38.2-35.1z"/>
</svg>
