<svg fill="#635BFF" role="img" viewBox="0 0 56 24" xmlns="http://www.w3.org/2000/svg" aria-label="Stripe">
  <path d="M26.5 4.2c-1.8-.67-2.8-1.18-2.8-2 0-.69.57-1.08 1.58-1.08 1.86 0 3.76.71 5.08 1.36l.74-4.58C29.4.81 27.2 0 24.2 0c-2.1 0-3.9.54-5.1 1.56-1.3 1.06-2 2.6-2 4.6 0 3.37 2.06 4.8 5.4 6.02 2.15.77 2.87 1.31 2.87 2.15 0 .82-.7 1.29-1.96 1.29-1.56 0-4.14-.77-5.83-1.76l-.75 4.63C19.7 22.49 21.9 24 24.7 24c2.2 0 4-.52 5.2-1.51 1.39-1.09 2.1-2.7 2.1-4.77 0-3.44-2.1-4.88-5.5-6.22z"/>
</svg>
